<svg width="18" height="18" viewBox="0 0 18 18" fill="none" xmlns="http://www.w3.org/2000/svg">
<path d="M16.5013 10.7246C16.2803 10.7246 16.0683 10.8124 15.912 10.9687C15.7558 11.125 15.668 11.3369 15.668 11.5579V14.8913C15.668 15.1123 15.5802 15.3243 15.4239 15.4805C15.2676 15.6368 15.0556 15.7246 14.8346 15.7246H3.16797C2.94695 15.7246 2.73499 15.6368 2.57871 15.4805C2.42243 15.3243 2.33464 15.1123 2.33464 14.8913V11.5579C2.33464 11.3369 2.24684 11.125 2.09056 10.9687C1.93428 10.8124 1.72232 10.7246 1.5013 10.7246C1.28029 10.7246 1.06833 10.8124 0.912046 10.9687C0.755766 11.125 0.667969 11.3369 0.667969 11.5579V14.8913C0.667969 15.5543 0.931361 16.1902 1.4002 16.659C1.86904 17.1279 2.50493 17.3913 3.16797 17.3913H14.8346C15.4977 17.3913 16.1336 17.1279 16.6024 16.659C17.0712 16.1902 17.3346 15.5543 17.3346 14.8913V11.5579C17.3346 11.3369 17.2468 11.125 17.0906 10.9687C16.9343 10.8124 16.7223 10.7246 16.5013 10.7246ZM8.40964 12.1496C8.48889 12.2255 8.58234 12.2849 8.68464 12.3246C8.78439 12.3687 8.89224 12.3915 9.0013 12.3915C9.11036 12.3915 9.21822 12.3687 9.31797 12.3246C9.42026 12.2849 9.51372 12.2255 9.59297 12.1496L12.9263 8.81628C13.0832 8.65936 13.1714 8.44653 13.1714 8.22461C13.1714 8.00269 13.0832 7.78986 12.9263 7.63294C12.7694 7.47602 12.5566 7.38787 12.3346 7.38787C12.1127 7.38787 11.8999 7.47602 11.743 7.63294L9.83463 9.54961V1.55794C9.83463 1.33693 9.74684 1.12497 9.59056 0.968687C9.43428 0.812407 9.22232 0.724609 9.0013 0.724609C8.78029 0.724609 8.56833 0.812407 8.41205 0.968687C8.25577 1.12497 8.16797 1.33693 8.16797 1.55794V9.54961L6.25964 7.63294C6.18194 7.55524 6.08969 7.49361 5.98818 7.45156C5.88666 7.40951 5.77785 7.38787 5.66797 7.38787C5.55809 7.38787 5.44928 7.40951 5.34776 7.45156C5.24624 7.49361 5.154 7.55524 5.0763 7.63294C4.9986 7.71064 4.93697 7.80288 4.89492 7.9044C4.85287 8.00592 4.83123 8.11473 4.83123 8.22461C4.83123 8.33449 4.85287 8.4433 4.89492 8.54482C4.93697 8.64634 4.9986 8.73858 5.0763 8.81628L8.40964 12.1496Z" fill="#07294E"/>
</svg>
