<svg width="50" height="51" viewBox="0 0 50 51" fill="none" xmlns="http://www.w3.org/2000/svg">
<circle cx="25" cy="25.0527" r="24.5" fill="white" stroke="#FFCC00"/>
<path d="M15 24.0527C14.4477 24.0527 14 24.5004 14 25.0527C14 25.605 14.4477 26.0527 15 26.0527V24.0527ZM35.7071 25.7598C36.0976 25.3693 36.0976 24.7362 35.7071 24.3456L29.3431 17.9817C28.9526 17.5911 28.3195 17.5911 27.9289 17.9817C27.5384 18.3722 27.5384 19.0054 27.9289 19.3959L33.5858 25.0527L27.9289 30.7096C27.5384 31.1001 27.5384 31.7333 27.9289 32.1238C28.3195 32.5143 28.9526 32.5143 29.3431 32.1238L35.7071 25.7598ZM15 26.0527H35V24.0527H15V26.0527Z" fill="#FFCC00"/>
</svg>
