<svg width="217" height="212" viewBox="0 0 217 212" fill="none" xmlns="http://www.w3.org/2000/svg">
<path d="M76.9323 188.382C77.9637 188.463 78.8965 188.778 79.7307 189.325C80.5533 189.882 81.1858 190.612 81.6281 191.513C82.059 192.425 82.2316 193.423 82.1459 194.508C82.0601 195.592 81.7334 196.545 81.1655 197.367C80.587 198.188 79.8482 198.804 78.9491 199.214C78.0385 199.635 77.0675 199.804 76.036 199.722C74.9939 199.64 74.0616 199.32 73.2389 198.763C72.4048 198.216 71.7719 197.492 71.3401 196.591C70.9084 195.69 70.7355 194.697 70.8212 193.613C70.9069 192.528 71.2341 191.569 71.8028 190.737C72.3706 189.915 73.1099 189.294 74.0205 188.874C74.9196 188.463 75.8902 188.299 76.9323 188.382ZM76.8075 189.961C76.0738 189.903 75.4068 190.016 74.8065 190.3C74.2054 190.595 73.721 191.038 73.3532 191.63C72.974 192.231 72.7521 192.941 72.6874 193.76C72.6226 194.579 72.7307 195.31 73.0116 195.952C73.2819 196.594 73.6911 197.103 74.2393 197.478C74.7874 197.853 75.4284 198.069 76.1621 198.127C76.8958 198.185 77.5628 198.072 78.163 197.788C78.7633 197.504 79.2526 197.066 79.631 196.476C79.9987 195.884 80.215 195.179 80.2797 194.36C80.3444 193.541 80.242 192.806 79.9726 192.153C79.6917 191.51 79.2776 190.996 78.7303 190.61C78.1821 190.235 77.5412 190.019 76.8075 189.961Z" fill="#FFCC00"/>
<path d="M64.0903 188.811L63.5458 182.294L65.3686 183.227L65.7659 187.961L69.6976 185.445L71.5061 186.371L65.8988 189.737L66.4503 196.276L64.6275 195.342L64.2305 190.572L60.27 193.11L58.4615 192.183L64.0903 188.811Z" fill="#FFCC00"/>
<path d="M49.5653 187.036L50.3819 185.792L54.3277 188.382L56.1277 185.64L53.0513 183.621L53.8678 182.377L56.9442 184.396L59.6134 180.33L61.1382 181.331L55.036 190.627L49.5653 187.036Z" fill="#FFCC00"/>
<path d="M49.3385 172.912C50.2478 173.406 50.9723 174.072 51.512 174.911C52.0372 175.755 52.3187 176.678 52.3564 177.682C52.3797 178.69 52.1318 179.672 51.6127 180.628C51.0935 181.584 50.4076 182.322 49.5548 182.843C48.6926 183.358 47.7673 183.62 46.779 183.63C45.7762 183.643 44.8201 183.404 43.9108 182.91C42.9921 182.411 42.2702 181.74 41.745 180.897C41.2053 180.057 40.9213 179.139 40.8929 178.14C40.8646 177.142 41.11 176.164 41.6291 175.208C42.1482 174.252 42.8367 173.509 43.6946 172.98C44.5474 172.459 45.4752 172.192 46.478 172.179C47.4664 172.169 48.4199 172.414 49.3385 172.912ZM48.5828 174.304C47.936 173.953 47.2806 173.785 46.6166 173.801C45.9475 173.826 45.3248 174.035 44.7484 174.426C44.1575 174.821 43.6661 175.379 43.2742 176.101C42.8824 176.823 42.6841 177.535 42.6796 178.236C42.6656 178.933 42.8329 179.563 43.1813 180.129C43.5297 180.694 44.0274 181.153 44.6742 181.504C45.321 181.855 45.9764 182.023 46.6404 182.007C47.3044 181.991 47.9293 181.79 48.515 181.404C49.0915 181.013 49.5756 180.457 49.9675 179.735C50.3593 179.013 50.5648 178.299 50.5838 177.594C50.5884 176.892 50.419 176.254 50.0757 175.679C49.7272 175.114 49.2296 174.655 48.5828 174.304Z" fill="#FFCC00"/>
<path d="M40.7715 164.685L39.5099 169.66L40.5086 170.629L43.607 167.438L44.9157 168.708L37.1698 176.687L34.4146 174.012C33.8024 173.418 33.3898 172.809 33.1769 172.186C32.9564 171.556 32.9174 170.96 33.06 170.4C33.1949 169.832 33.4779 169.326 33.9088 168.882C34.4141 168.362 35.0278 168.036 35.75 167.905C36.4572 167.774 37.1988 167.936 37.975 168.392L39.2103 163.169L40.7715 164.685ZM39.4944 171.674L38.048 170.27C37.5582 169.794 37.0719 169.56 36.5893 169.567C36.099 169.567 35.6532 169.773 35.252 170.186C34.8507 170.6 34.6611 171.04 34.6831 171.507C34.6977 171.982 34.9537 172.461 35.4511 172.944L36.8976 174.349L39.4944 171.674Z" fill="#FFCC00"/>
<path d="M27.6209 165.319C26.8304 164.438 26.3104 163.514 26.0608 162.549C25.7962 161.583 25.8213 160.636 26.1361 159.709C26.4359 158.781 27.0067 157.94 27.8485 157.185C28.6903 156.43 29.5847 155.958 30.5317 155.767C31.4716 155.569 32.4074 155.654 33.3391 156.022C34.2558 156.389 35.1093 157.014 35.8998 157.895L38.3246 160.599L30.0457 168.023L27.6209 165.319ZM34.792 158.889C33.9232 157.92 32.9953 157.412 32.0082 157.366C31.0212 157.32 30.0512 157.724 29.0983 158.579C28.1374 159.44 27.6183 160.371 27.5412 161.372C27.4641 162.372 27.8599 163.357 28.7287 164.326L29.9358 165.672L35.999 160.235L34.792 158.889Z" fill="#FFCC00"/>
<path d="M27.0791 146.576L25.3304 143.247L26.6336 142.563L29.2305 147.506L19.3862 152.678L18.5379 151.063L27.0791 146.576Z" fill="#FFCC00"/>
<path d="M15.9737 141.396L19.0339 140.261L17.6981 136.661L19.0931 136.143L20.4289 139.743L23.6241 138.558L22.1213 134.507L23.5164 133.99L25.6537 139.75L15.2132 143.624L13.0759 137.864L14.4709 137.346L15.9737 141.396Z" fill="#FFCC00"/>
<path d="M18.0968 124.39L19.1657 128.921L21.5607 129.178L21.9978 131.031L10.2446 129.71L9.75977 127.655L19.6837 121.221L20.1245 123.089L18.0968 124.39ZM16.7661 125.23L12.1512 128.176L17.5999 128.765L16.7661 125.23Z" fill="#FFCC00"/>
<path d="M8.06804 116.055C7.93483 114.879 8.04629 113.825 8.40244 112.894C8.74678 111.953 9.31591 111.196 10.1098 110.623C10.8919 110.041 11.8447 109.686 12.9682 109.559C14.0917 109.432 15.0944 109.565 15.9763 109.959C16.8571 110.342 17.5704 110.954 18.1164 111.794C18.6505 112.624 18.9842 113.628 19.1174 114.804L19.5261 118.413L8.47669 119.664L8.06804 116.055ZM17.6389 114.972C17.4925 113.679 17.0305 112.727 16.253 112.118C15.4754 111.508 14.4507 111.275 13.1788 111.419C11.8964 111.564 10.9338 112.022 10.291 112.793C9.64833 113.563 9.40018 114.595 9.5466 115.888L9.75002 117.685L17.8423 116.768L17.6389 114.972Z" fill="#FFCC00"/>
<path d="M9.22979 104.566L12.4937 104.586L12.5173 100.747L14.0053 100.756L13.9817 104.596L17.3896 104.617L17.4162 100.297L18.9042 100.306L18.8664 106.45L7.73062 106.381L7.76836 100.237L9.25633 100.247L9.22979 104.566Z" fill="#FFCC00"/>
<path d="M20.1533 91.5284L15.4208 93.5137L15.2472 94.8948L19.6604 95.4495L19.433 97.2593L8.39977 95.8725L8.87867 92.0624C8.98509 91.2158 9.22305 90.52 9.59255 89.9752C9.96338 89.4198 10.4155 89.0304 10.9488 88.8072C11.4835 88.5734 12.0577 88.4951 12.6716 88.5722C13.3912 88.6627 14.0208 88.9568 14.5602 89.4547C15.0905 89.9406 15.4068 90.6307 15.5094 91.5252L20.4247 89.3694L20.1533 91.5284ZM13.8025 94.7132L14.0539 92.7129C14.1391 92.0356 14.0336 91.5063 13.7375 91.1251C13.4427 90.7333 13.0096 90.5014 12.4381 90.4296C11.8666 90.3578 11.4008 90.4712 11.0407 90.77C10.6701 91.0674 10.4415 91.5601 10.355 92.248L10.1036 94.2483L13.8025 94.7132Z" fill="#FFCC00"/>
<path d="M21.6602 82.8549C21.4764 83.5786 21.187 84.1984 20.7918 84.7144C20.3863 85.2277 19.909 85.5907 19.3597 85.8034C18.8105 86.0161 18.2257 86.0437 17.6054 85.8861L18.0858 83.9942C18.5616 84.071 18.99 83.9872 19.3712 83.7428C19.7551 83.4882 20.0218 83.0662 20.1715 82.4769C20.3264 81.8669 20.3024 81.3546 20.0995 80.9399C19.8864 80.5226 19.5472 80.2548 19.0819 80.1367C18.7201 80.0448 18.3979 80.0785 18.1153 80.2379C17.8353 80.3869 17.5926 80.6059 17.3872 80.8949C17.1843 81.1735 16.9397 81.5736 16.6532 82.0952C16.2885 82.7509 15.9567 83.2774 15.6578 83.6747C15.3511 84.0591 14.9567 84.3551 14.4748 84.5629C13.9928 84.7707 13.4158 84.7892 12.7438 84.6186C12.1235 84.461 11.6201 84.1681 11.2336 83.7398C10.8472 83.3115 10.6008 82.7867 10.4944 82.1654C10.388 81.5442 10.4281 80.8665 10.6145 80.1325C10.8796 79.0883 11.3599 78.3023 12.0552 77.7745C12.7427 77.2338 13.5506 77.0427 14.4788 77.2014L13.9826 79.1554C13.5818 79.0866 13.1986 79.1874 12.8328 79.4577C12.467 79.728 12.2132 80.1423 12.0715 80.7005C11.9428 81.2071 11.967 81.6535 12.1441 82.0396C12.3212 82.4257 12.6527 82.6805 13.1386 82.8039C13.4694 82.8879 13.7683 82.8593 14.0353 82.718C14.2946 82.5637 14.5257 82.3473 14.7285 82.0686C14.9313 81.79 15.1734 81.4002 15.4546 80.8994C15.8322 80.2359 16.1757 79.7068 16.485 79.3121C16.7969 78.9071 17.1991 78.6021 17.6914 78.3969C18.176 78.1788 18.7594 78.1564 19.4418 78.3297C19.9897 78.4688 20.4686 78.75 20.8783 79.1732C21.2907 79.5861 21.5746 80.1149 21.7301 80.7597C21.8778 81.3915 21.8545 82.0899 21.6602 82.8549Z" fill="#FFCC00"/>
<path d="M17.4631 63.4782L27.722 67.7687L27.0182 69.4515L22.5309 67.5747L20.5122 72.4016L24.9995 74.2783L24.2958 75.9611L14.0368 71.6705L14.7406 69.9878L19.1394 71.8275L21.1581 67.0006L16.7593 65.1609L17.4631 63.4782Z" fill="#FFCC00"/>
<path d="M20.7597 57.6845L30.3043 63.3902L29.3684 64.9558L19.8238 59.2501L20.7597 57.6845Z" fill="#FFCC00"/>
<path d="M31.6213 47.816C32.0687 48.1616 32.4093 48.5931 32.6431 49.1106C32.8768 49.6281 32.941 50.2168 32.8356 50.8767C32.7218 51.5301 32.3845 52.2198 31.8238 52.9458L30.5914 54.5413L34.1623 57.2994L33.0473 58.7429L24.2468 51.9454L26.5941 48.9064C27.1158 48.2311 27.6741 47.7525 28.2691 47.4708C28.8621 47.1741 29.4451 47.0651 30.0179 47.1436C30.5972 47.2137 31.1317 47.4378 31.6213 47.816ZM30.6462 52.0362C31.07 51.4875 31.2638 50.9835 31.2277 50.5243C31.1831 50.0585 30.9328 49.6496 30.477 49.2975C29.5146 48.5542 28.6129 48.727 27.7718 49.816L26.5394 51.4115L29.4138 53.6317L30.6462 52.0362Z" fill="#FFCC00"/>
<path d="M41.1841 39.1445L42.2797 40.221L37.671 44.9118L36.5753 43.8353L41.1841 39.1445Z" fill="#FFCC00"/>
<path d="M54.7183 35.1324C54.1195 35.9762 53.3712 36.6158 52.4735 37.0512C51.5733 37.4717 50.6227 37.6407 49.6218 37.5582C48.6184 37.4607 47.673 37.0971 46.7858 36.4674C45.8986 35.8376 45.2478 35.0683 44.8334 34.1594C44.4252 33.2418 44.2754 32.2918 44.3841 31.3094C44.4902 30.3122 44.8427 29.3917 45.4416 28.5479C46.0467 27.6955 46.7993 27.059 47.6995 26.6384C48.5972 26.203 49.5434 26.0309 50.5381 26.1222C51.5329 26.2135 52.4738 26.574 53.3611 27.2037C54.2483 27.8335 54.9035 28.6059 55.3265 29.521C55.7409 30.4299 55.895 31.3829 55.7889 32.3802C55.6802 33.3626 55.3234 34.28 54.7183 35.1324ZM53.4266 34.2156C53.8526 33.6154 54.0975 32.9848 54.1613 32.3237C54.2163 31.6564 54.0842 31.0133 53.7649 30.3942C53.4431 29.7603 52.9473 29.2057 52.2775 28.7303C51.6078 28.2549 50.9249 27.973 50.2291 27.8845C49.5393 27.7874 48.893 27.878 48.2899 28.1563C47.6869 28.4346 47.1724 28.8738 46.7463 29.474C46.3203 30.0742 46.0755 30.7048 46.0117 31.3659C45.948 32.027 46.0727 32.6715 46.3858 33.2992C46.7051 33.9182 47.1996 34.4654 47.8693 34.9408C48.5391 35.4162 49.2232 35.7056 49.9216 35.8089C50.6175 35.8973 51.2713 35.8055 51.8831 35.5334C52.4861 35.255 53.0006 34.8158 53.4266 34.2156Z" fill="#FFCC00"/>
<path d="M60.9361 23.8861L66.8104 26.7604L65.0741 27.8464L60.8062 25.7603L60.9504 30.4259L59.2277 31.5035L59.2134 24.9637L53.317 22.0844L55.0533 20.9983L59.3518 23.1032L59.2042 18.4019L60.9269 17.3243L60.9361 23.8861Z" fill="#FFCC00"/>
<path d="M69.9074 12.3272L70.5567 13.6661L66.3097 15.7256L67.7408 18.6769L71.052 17.0712L71.7013 18.4101L68.3901 20.0158L70.5124 24.3923L68.8712 25.1882L64.0192 15.1826L69.9074 12.3272Z" fill="#FFCC00"/>
<path d="M82.1496 19.3734C81.2596 19.9009 80.3159 20.1812 79.3188 20.2142C78.3253 20.2326 77.3881 20.0008 76.5072 19.5185C75.6299 19.0217 74.914 18.3053 74.3592 17.3694C73.8045 16.4334 73.5225 15.466 73.5133 14.4671C73.5132 13.4628 73.7624 12.5339 74.261 11.6805C74.7632 10.8124 75.4594 10.1146 76.3495 9.58709C77.2487 9.05411 78.1951 8.77842 79.1885 8.76C80.1857 8.72696 81.1202 8.95427 81.992 9.44193C82.8638 9.92958 83.577 10.6414 84.1318 11.5773C84.6865 12.5133 84.9712 13.4853 84.9859 14.4934C84.9951 15.4922 84.7486 16.4257 84.2463 17.2938C83.7478 18.1472 83.0489 18.8404 82.1496 19.3734ZM81.342 18.0107C81.9752 17.6355 82.4552 17.1588 82.7821 16.5806C83.1036 15.9933 83.2443 15.352 83.2041 14.6566C83.1677 13.9466 82.9401 13.2384 82.5213 12.5318C82.1026 11.8252 81.5933 11.2902 80.9934 10.9265C80.4026 10.5575 79.7752 10.3776 79.1111 10.3868C78.447 10.396 77.7984 10.5882 77.1653 10.9635C76.5321 11.3388 76.0521 11.8155 75.7252 12.3936C75.3982 12.9717 75.2503 13.6112 75.2813 14.312C75.3214 15.0074 75.5509 15.7083 75.9696 16.4149C76.3884 17.1215 76.8959 17.6639 77.492 18.0421C78.0919 18.4057 78.7266 18.5875 79.3962 18.5874C80.0603 18.5782 80.7089 18.386 81.342 18.0107Z" fill="#FFCC00"/>
<path d="M93.6058 16.2376L89.9818 12.6037L88.6372 12.9639L89.7884 17.2604L88.0265 17.7324L85.1487 6.99129L88.8578 5.99748C89.6821 5.77664 90.4162 5.73455 91.0602 5.87121C91.7145 6.00511 92.2456 6.27692 92.6535 6.68663C93.0717 7.09359 93.3609 7.59587 93.521 8.19345C93.7087 8.89408 93.6738 9.58809 93.4163 10.2755C93.1663 10.9498 92.6465 11.5032 91.8568 11.9357L95.7076 15.6744L93.6058 16.2376ZM88.2604 11.5575L90.2077 11.0358C90.8672 10.8591 91.3175 10.5617 91.5589 10.1437C91.8106 9.7229 91.8619 9.23431 91.7128 8.67793C91.5637 8.12156 91.2829 7.73299 90.8704 7.51223C90.4551 7.28117 89.9126 7.25535 89.2429 7.43479L87.2956 7.95653L88.2604 11.5575Z" fill="#FFCC00"/>
<path d="M99.8057 4.62082C100.968 4.39419 102.027 4.42123 102.984 4.70194C103.949 4.97015 104.749 5.47709 105.383 6.22276C106.026 6.95593 106.456 7.87739 106.672 8.98715C106.889 10.0969 106.836 11.1071 106.514 12.0176C106.202 12.9261 105.649 13.6859 104.855 14.2972C104.07 14.8959 103.096 15.3086 101.934 15.5352L98.3694 16.2304L96.2409 5.31605L99.8057 4.62082ZM101.649 14.0747C102.927 13.8256 103.838 13.2892 104.384 12.4655C104.93 11.6418 105.08 10.6018 104.835 9.34548C104.588 8.07868 104.055 7.15568 103.235 6.57647C102.416 5.99727 101.368 5.83221 100.091 6.08131L98.316 6.42739L99.8749 14.4208L101.649 14.0747Z" fill="#FFCC00"/>
<path d="M116.175 13.7682L119.929 13.9738L119.848 15.4436L114.273 15.1383L114.881 4.03492L116.702 4.13464L116.175 13.7682Z" fill="#FFCC00"/>
<path d="M126.314 6.888L125.72 10.0974L129.496 10.7966L129.225 12.2597L125.449 11.5606L124.828 14.9116L129.076 15.6982L128.805 17.1613L122.764 16.0426L124.791 5.09276L130.833 6.21146L130.562 7.67458L126.314 6.888Z" fill="#FFCC00"/>
<path d="M139.827 17.4313L135.388 16.0254L133.939 17.9497L132.124 17.3748L139.285 7.96166L141.298 8.59941L141.734 20.4186L139.903 19.8388L139.827 17.4313ZM139.788 15.8582L139.625 10.3855L136.326 14.7614L139.788 15.8582Z" fill="#FFCC00"/>
<path d="M152.124 13.0953C153.203 13.5842 154.05 14.2203 154.667 15.0036C155.299 15.7816 155.656 16.6582 155.741 17.6336C155.84 18.6037 155.656 19.6036 155.189 20.6334C154.723 21.6632 154.094 22.4557 153.303 23.0108C152.523 23.5704 151.632 23.8692 150.631 23.9073C149.644 23.94 148.611 23.7119 147.533 23.2231L144.225 21.7234L148.817 11.5956L152.124 13.0953ZM148.147 21.8678C149.333 22.4052 150.386 22.4964 151.308 22.1415C152.231 21.7866 152.956 21.0262 153.484 19.8605C154.017 18.6849 154.118 17.6237 153.786 16.6768C153.454 15.73 152.695 14.9878 151.51 14.4505L149.863 13.704L146.501 21.1213L148.147 21.8678Z" fill="#FFCC00"/>
<path d="M161.393 19.984L159.702 22.7759L162.987 24.7651L162.216 26.0379L158.931 24.0487L157.166 26.9637L160.861 29.2016L160.09 30.4744L154.835 27.2916L160.604 17.7663L165.859 20.949L165.088 22.2218L161.393 19.984Z" fill="#FFCC00"/>
<path d="M166.984 36.0482L167.706 30.9672L166.609 30.1099L163.87 33.6144L162.433 32.4912L169.281 23.7299L172.306 26.0947C172.979 26.6202 173.454 27.1813 173.732 27.7779C174.019 28.381 174.121 28.9688 174.04 29.5411C173.966 30.1201 173.739 30.6532 173.358 31.1407C172.911 31.7121 172.336 32.1018 171.632 32.3097C170.943 32.5157 170.188 32.4335 169.368 32.0629L168.698 37.3882L166.984 36.0482ZM167.506 28.9628L169.094 30.2043C169.632 30.6247 170.14 30.8055 170.62 30.7468C171.107 30.6946 171.528 30.4417 171.883 29.9878C172.238 29.534 172.379 29.0759 172.307 28.6136C172.242 28.1429 171.936 27.694 171.39 27.2671L169.802 26.0256L167.506 28.9628Z" fill="#FFCC00"/>
<path d="M173.66 41.7892C173.132 41.2604 172.749 40.694 172.508 40.0902C172.276 39.4789 172.209 38.8829 172.308 38.3023C172.407 37.7217 172.683 37.2055 173.136 36.7538L174.514 38.1364C174.204 38.5054 174.057 38.9162 174.071 39.3688C174.093 39.8289 174.318 40.2743 174.747 40.705C175.192 41.1507 175.644 41.3928 176.104 41.4313C176.571 41.4623 176.975 41.3084 177.315 40.9695C177.58 40.706 177.716 40.412 177.724 40.0877C177.74 39.771 177.676 39.4503 177.533 39.1257C177.398 38.8087 177.18 38.3935 176.879 37.8801C176.503 37.2308 176.221 36.676 176.034 36.2156C175.861 35.7552 175.809 35.2649 175.878 34.7445C175.946 34.2242 176.226 33.7193 176.717 33.2299C177.171 32.7781 177.68 32.4961 178.246 32.384C178.812 32.2718 179.389 32.3293 179.977 32.5566C180.565 32.7839 181.126 33.1657 181.661 33.7021C182.421 34.4652 182.85 35.2805 182.946 36.1481C183.058 37.0156 182.808 37.8072 182.196 38.5227L180.772 37.0947C181.037 36.7859 181.147 36.4052 181.102 35.9526C181.058 35.5 180.832 35.0697 180.426 34.6617C180.057 34.2915 179.661 34.0834 179.239 34.0374C178.817 33.9915 178.428 34.1454 178.073 34.4993C177.831 34.7403 177.702 35.0116 177.687 35.3133C177.686 35.615 177.754 35.9243 177.889 36.2413C178.024 36.5584 178.235 36.966 178.52 37.4643C178.896 38.1287 179.175 38.6948 179.355 39.1628C179.543 39.6383 179.598 40.1399 179.522 40.6678C179.461 41.1956 179.181 41.7081 178.682 42.205C178.282 42.6041 177.795 42.871 177.221 43.0058C176.655 43.1482 176.056 43.1208 175.423 42.9236C174.804 42.7264 174.217 42.3483 173.66 41.7892Z" fill="#FFCC00"/>
<path d="M192.446 48.1214L183.502 54.729L182.418 53.2619L186.331 50.3717L183.222 46.1635L179.31 49.0538L178.226 47.5867L187.17 40.9791L188.253 42.4462L184.419 45.2794L187.527 49.4875L191.362 46.6543L192.446 48.1214Z" fill="#FFCC00"/>
<path d="M195.73 53.9228L185.937 59.1915L185.073 57.5853L194.865 52.3165L195.73 53.9228Z" fill="#FFCC00"/>
<path d="M198.634 68.3081C198.108 68.515 197.563 68.5862 196.999 68.5215C196.435 68.4568 195.897 68.2101 195.384 67.7812C194.881 67.3485 194.462 66.7053 194.127 65.8516L193.389 63.9755L189.19 65.6269L188.522 63.9294L198.871 59.8595L200.276 63.433C200.588 64.2271 200.713 64.9518 200.65 65.6071C200.6 66.2684 200.395 66.8248 200.034 67.2763C199.677 67.7377 199.21 68.0817 198.634 68.3081ZM195.511 65.307C195.765 65.9522 196.098 66.377 196.511 66.5814C196.934 66.782 197.413 66.7768 197.949 66.566C199.081 66.1209 199.395 65.2582 198.891 63.9776L198.153 62.1015L194.773 63.4308L195.511 65.307Z" fill="#FFCC00"/>
<path d="M201.175 80.9648L199.689 81.3534L198.025 74.9914L199.511 74.6028L201.175 80.9648Z" fill="#FFCC00"/>
<path d="M197.679 93.6417C197.261 92.6949 197.096 91.7246 197.182 90.7306C197.283 89.7421 197.625 88.8393 198.209 88.0224C198.808 87.2109 199.604 86.5857 200.6 86.1469C201.596 85.7081 202.59 85.5438 203.583 85.6541C204.58 85.7742 205.472 86.1327 206.26 86.7297C207.062 87.3322 207.671 88.1069 208.088 89.0536C208.51 90.0102 208.67 90.9827 208.57 91.9712C208.483 92.9652 208.146 93.8658 207.558 94.673C206.969 95.4802 206.177 96.1032 205.182 96.542C204.186 96.9808 203.187 97.1472 202.184 97.0412C201.192 96.9309 200.294 96.5746 199.493 95.9721C198.705 95.375 198.1 94.5983 197.679 93.6417ZM199.128 93.0029C199.425 93.6764 199.841 94.21 200.376 94.6037C200.92 94.9931 201.54 95.2094 202.235 95.2527C202.945 95.3015 203.675 95.1603 204.427 94.829C205.178 94.4978 205.77 94.0561 206.203 93.504C206.64 92.9616 206.894 92.3603 206.964 91.6998C207.034 91.0394 206.921 90.3724 206.624 89.6989C206.327 89.0255 205.912 88.4919 205.377 88.0981C204.842 87.7044 204.225 87.481 203.525 87.428C202.83 87.3847 202.107 87.5286 201.355 87.8599C200.603 88.1911 200.004 88.6301 199.557 89.1767C199.125 89.7288 198.868 90.3372 198.788 91.002C198.718 91.6624 198.831 92.3294 199.128 93.0029Z" fill="#FFCC00"/>
<path d="M204.145 104.746L198.666 108.316L198.623 106.268L202.603 103.674L198.523 101.405L198.482 99.3736L204.103 102.715L209.599 99.1289L209.641 101.176L205.63 103.787L209.742 106.071L209.783 108.103L204.145 104.746Z" fill="#FFCC00"/>
<path d="M209.468 118.376L207.986 118.246L208.395 113.544L205.128 113.26L204.808 116.926L203.326 116.797L203.645 113.131L198.8 112.708L198.958 110.891L210.036 111.856L209.468 118.376Z" fill="#FFCC00"/>
<path d="M197.142 125.271C197.146 124.237 197.389 123.283 197.872 122.41C198.366 121.547 199.045 120.862 199.911 120.353C200.787 119.854 201.769 119.607 202.857 119.611C203.945 119.614 204.921 119.868 205.783 120.373C206.645 120.887 207.315 121.578 207.792 122.443C208.28 123.32 208.522 124.275 208.518 125.31C208.515 126.355 208.266 127.309 207.773 128.171C207.29 129.044 206.615 129.73 205.75 130.228C204.884 130.727 203.907 130.974 202.819 130.971C201.731 130.967 200.751 130.713 199.878 130.209C199.015 129.704 198.34 129.014 197.853 128.138C197.376 127.272 197.139 126.317 197.142 125.271ZM198.726 125.277C198.724 126.013 198.887 126.669 199.216 127.246C199.555 127.824 200.034 128.273 200.651 128.595C201.279 128.928 202.004 129.096 202.825 129.099C203.647 129.101 204.367 128.938 204.987 128.61C205.607 128.292 206.083 127.846 206.416 127.271C206.748 126.696 206.916 126.04 206.918 125.304C206.921 124.568 206.758 123.912 206.429 123.335C206.1 122.758 205.627 122.303 205.01 121.97C204.392 121.648 203.672 121.485 202.851 121.483C202.03 121.48 201.304 121.637 200.674 121.955C200.054 122.284 199.572 122.736 199.229 123.31C198.896 123.885 198.729 124.541 198.726 125.277Z" fill="#FFCC00"/>
<path d="M193.961 136.717L198.939 135.469L199.319 134.13L195.04 132.915L195.538 131.16L206.235 134.197L205.187 137.891C204.954 138.712 204.613 139.364 204.166 139.847C203.715 140.34 203.21 140.657 202.649 140.797C202.085 140.947 201.505 140.938 200.91 140.769C200.213 140.571 199.635 140.185 199.177 139.611C198.726 139.051 198.517 138.321 198.551 137.421L193.366 138.81L193.961 136.717ZM200.72 134.527L200.169 136.467C199.983 137.124 200.007 137.663 200.242 138.084C200.474 138.516 200.867 138.811 201.422 138.968C201.976 139.125 202.453 139.083 202.854 138.843C203.266 138.604 203.566 138.152 203.755 137.485L204.306 135.546L200.72 134.527Z" fill="#FFCC00"/>
<path d="M200.755 147.993C200.353 149.107 199.787 150.003 199.055 150.68C198.33 151.372 197.485 151.798 196.519 151.961C195.56 152.137 194.549 152.033 193.485 151.65C192.421 151.267 191.581 150.703 190.965 149.96C190.345 149.226 189.976 148.362 189.858 147.367C189.747 146.386 189.892 145.338 190.293 144.224L191.524 140.807L201.986 144.576L200.755 147.993ZM191.693 144.729C191.252 145.953 191.245 147.011 191.672 147.901C192.1 148.792 192.915 149.455 194.12 149.889C195.334 150.326 196.4 150.342 197.317 149.935C198.234 149.529 198.914 148.713 199.355 147.489L199.968 145.788L192.306 143.028L191.693 144.729Z" fill="#FFCC00"/>
<path d="M184.509 157.357L182.407 160.475L181.187 159.653L184.308 155.022L193.529 161.238L192.509 162.75L184.509 157.357Z" fill="#FFCC00"/>
<path d="M185.214 169.59L182.764 167.434L180.227 170.317L179.11 169.334L181.646 166.451L179.088 164.2L176.234 167.444L175.117 166.461L179.175 161.848L187.536 169.203L183.478 173.816L182.361 172.833L185.214 169.59Z" fill="#FFCC00"/>
<path d="M169.234 175.786L172.717 172.696L171.808 170.466L173.232 169.202L177.642 180.177L176.062 181.578L165.691 175.892L167.128 174.618L169.234 175.786ZM170.604 176.56L175.386 179.226L173.321 174.149L170.604 176.56Z" fill="#FFCC00"/>
<path d="M166.65 188.566C165.678 189.241 164.697 189.643 163.708 189.771C162.717 189.914 161.78 189.772 160.9 189.344C160.016 188.932 159.252 188.261 158.607 187.332C157.962 186.403 157.604 185.457 157.533 184.494C157.453 183.537 157.653 182.619 158.134 181.74C158.612 180.876 159.337 180.106 160.31 179.431L163.294 177.36L169.634 186.495L166.65 188.566ZM161.158 180.653C160.089 181.395 159.471 182.253 159.302 183.227C159.134 184.201 159.415 185.213 160.145 186.265C160.881 187.325 161.741 187.955 162.724 188.156C163.707 188.357 164.733 188.086 165.802 187.344L167.287 186.313L162.644 179.623L161.158 180.653Z" fill="#FFCC00"/>
<path d="M155.984 192.991L154.454 190.108L151.062 191.908L150.365 190.593L153.757 188.793L152.159 185.783L148.343 187.808L147.646 186.493L153.073 183.614L158.293 193.45L152.866 196.33L152.168 195.016L155.984 192.991Z" fill="#FFCC00"/>
<path d="M139.326 189.555L143.318 192.781L144.616 192.279L143.012 188.13L144.713 187.472L148.724 197.844L145.142 199.229C144.346 199.537 143.621 199.657 142.966 199.59C142.301 199.527 141.744 199.313 141.295 198.95C140.835 198.59 140.494 198.121 140.271 197.544C140.009 196.868 139.97 196.174 140.152 195.463C140.329 194.766 140.786 194.16 141.525 193.646L137.296 190.34L139.326 189.555ZM145.141 193.637L143.261 194.364C142.624 194.61 142.208 194.954 142.013 195.395C141.808 195.841 141.809 196.332 142.017 196.869C142.225 197.406 142.545 197.763 142.979 197.938C143.417 198.123 143.959 198.091 144.605 197.841L146.486 197.114L145.141 193.637Z" fill="#FFCC00"/>
<path d="M130.977 192.342C131.701 192.161 132.384 192.122 133.026 192.225C133.67 192.338 134.216 192.587 134.663 192.969C135.111 193.352 135.413 193.854 135.568 194.475L133.675 194.949C133.517 194.494 133.24 194.156 132.844 193.936C132.438 193.719 131.94 193.684 131.35 193.832C130.739 193.985 130.3 194.249 130.031 194.624C129.764 195.01 129.689 195.435 129.806 195.901C129.897 196.263 130.079 196.531 130.353 196.704C130.617 196.88 130.925 196.99 131.277 197.033C131.619 197.08 132.087 197.106 132.682 197.111C133.432 197.121 134.053 197.163 134.545 197.238C135.028 197.326 135.476 197.533 135.887 197.859C136.299 198.184 136.589 198.684 136.757 199.356C136.913 199.977 136.893 200.559 136.7 201.102C136.506 201.646 136.161 202.112 135.664 202.5C135.167 202.888 134.552 203.174 133.817 203.358C132.772 203.62 131.852 203.569 131.058 203.208C130.256 202.859 129.705 202.238 129.404 201.345L131.36 200.856C131.489 201.241 131.76 201.531 132.171 201.725C132.583 201.919 133.068 201.946 133.626 201.806C134.133 201.679 134.515 201.446 134.771 201.107C135.027 200.768 135.094 200.355 134.972 199.869C134.889 199.538 134.722 199.288 134.471 199.12C134.213 198.965 133.913 198.864 133.571 198.818C133.23 198.771 132.772 198.743 132.197 198.733C131.434 198.715 130.805 198.663 130.311 198.578C129.807 198.496 129.348 198.286 128.934 197.95C128.512 197.627 128.215 197.124 128.044 196.441C127.907 195.892 127.928 195.338 128.106 194.776C128.274 194.217 128.605 193.716 129.099 193.274C129.585 192.844 130.211 192.534 130.977 192.342Z" fill="#FFCC00"/>
<path d="M115.905 205.224L114.819 194.157L116.634 193.979L117.109 198.82L122.316 198.308L121.841 193.468L123.656 193.289L124.743 204.356L122.927 204.534L122.462 199.789L117.255 200.301L117.721 205.046L115.905 205.224Z" fill="#FFCC00"/>
<path d="M109.24 205.07L109.738 193.961L111.56 194.042L111.062 205.151L109.24 205.07Z" fill="#FFCC00"/>
<path d="M95.4025 200.187C95.4946 199.629 95.7131 199.124 96.0579 198.673C96.4026 198.222 96.8905 197.886 97.5215 197.666C98.1507 197.457 98.9179 197.427 99.823 197.576L101.812 197.905L102.547 193.453L104.347 193.75L102.535 204.721L98.7462 204.096C97.9042 203.957 97.2182 203.692 96.688 203.302C96.1456 202.92 95.7732 202.459 95.5707 201.917C95.3577 201.374 95.3017 200.797 95.4025 200.187ZM99.5805 199.044C98.8964 198.931 98.3608 198.999 97.9736 199.249C97.5847 199.509 97.3433 199.923 97.2494 200.492C97.0513 201.691 97.631 202.403 98.9886 202.628L100.978 202.956L101.57 199.373L99.5805 199.044Z" fill="#FFCC00"/>
<path d="M83.2332 195.878L83.6615 194.403L89.9767 196.236L89.5484 197.712L83.2332 195.878Z" fill="#FFCC00"/>
</svg>
