<svg width="121" height="170" viewBox="0 0 121 170" fill="none" xmlns="http://www.w3.org/2000/svg">
<g clip-path="url(#clip0_346_802)">
<path opacity="0.1" d="M74.9413 162.214C67.4404 162.085 60.6198 160.337 54.4795 156.969C48.3336 153.928 43.0253 149.596 38.5548 143.973C34.0843 138.351 30.772 131.769 28.618 124.229C26.1379 116.684 24.9706 108.671 25.1162 100.192C25.4075 83.2337 29.4268 67.6442 37.1741 53.4235C44.9214 39.2029 53.2874 26.9503 62.2719 16.6655C72.9208 4.45208 84.8545 -6.59754 98.0731 -16.4833L112.041 -3.52083C109.072 -1.6145 105.592 1.58792 101.6 6.08644C97.2876 10.2532 93.4532 15.0807 90.0967 20.5688C86.4141 26.0512 83.3782 31.8711 80.9889 38.0282C78.2735 44.1797 76.8654 50.1906 76.7645 56.0609C76.6973 59.9743 78.9242 63.2748 83.4451 65.9622C87.9604 68.9757 92.9565 72.4869 98.4334 76.4956C103.91 80.5043 108.881 85.483 113.346 91.4316C117.805 97.7064 119.943 106.225 119.758 116.987C119.651 123.183 118.409 129.034 116.031 134.539C113.653 140.044 110.471 144.882 106.484 149.055C102.172 153.221 97.3872 156.401 92.13 158.595C86.5411 161.109 80.8115 162.315 74.9413 162.214Z" fill="#07294E"/>
</g>
<defs>
<clipPath id="clip0_346_802">
<rect width="120" height="169" fill="white" transform="translate(0.5 0.984375)"/>
</clipPath>
</defs>
</svg>
