<svg width="52" height="66" viewBox="0 0 52 66" fill="none" xmlns="http://www.w3.org/2000/svg">
<path d="M1.81241 65.0527H50.1845C51.0159 65.0527 51.6961 64.3725 51.6961 63.5411V1.56436C51.6961 0.732967 51.0159 0.0527344 50.1845 0.0527344H41.1147H32.045H1.81241C0.981014 0.0527344 0.300781 0.732967 0.300781 1.56436V63.5411C0.300781 64.3725 0.981014 65.0527 1.81241 65.0527ZM33.5566 3.07599H39.6031V15.3655L37.4112 13.9144C37.1543 13.7481 36.8671 13.6574 36.5798 13.6574C36.2926 13.6574 35.9903 13.7481 35.7485 13.9144L33.5566 15.3655V3.07599ZM3.32404 3.07599H30.5333V18.1923C30.5333 18.7516 30.8357 19.2655 31.3345 19.5225C31.8182 19.7795 32.4229 19.7492 32.8915 19.4469L36.5798 16.983L40.2833 19.4469C40.5403 19.6132 40.8275 19.7039 41.1147 19.7039C41.3566 19.7039 41.5985 19.6434 41.8252 19.5225C42.324 19.2655 42.6264 18.7516 42.6264 18.1923V3.07599H48.6729V62.0295H3.32404V3.07599Z" fill="white"/>
<path d="M7.85928 28.7733H25.9988C26.8302 28.7733 27.5104 28.093 27.5104 27.2616C27.5104 26.4302 26.8302 25.75 25.9988 25.75H7.85928C7.02789 25.75 6.34766 26.4302 6.34766 27.2616C6.34766 28.093 7.02789 28.7733 7.85928 28.7733ZM44.1384 31.7965H7.85928C7.02789 31.7965 6.34766 32.4767 6.34766 33.3081C6.34766 34.1395 7.02789 34.8198 7.85928 34.8198H44.1384C44.9697 34.8198 45.65 34.1395 45.65 33.3081C45.65 32.4767 44.9697 31.7965 44.1384 31.7965ZM44.1384 37.843H7.85928C7.02789 37.843 6.34766 38.5233 6.34766 39.3547C6.34766 40.186 7.02789 40.8663 7.85928 40.8663H44.1384C44.9697 40.8663 45.65 40.186 45.65 39.3547C45.65 38.5233 44.9697 37.843 44.1384 37.843ZM44.1384 43.8895H7.85928C7.02789 43.8895 6.34766 44.5698 6.34766 45.4012C6.34766 46.2326 7.02789 46.9128 7.85928 46.9128H44.1384C44.9697 46.9128 45.65 46.2326 45.65 45.4012C45.65 44.5698 44.9697 43.8895 44.1384 43.8895ZM44.1384 49.936H7.85928C7.02789 49.936 6.34766 50.6163 6.34766 51.4477C6.34766 52.2791 7.02789 52.9593 7.85928 52.9593H44.1384C44.9697 52.9593 45.65 52.2791 45.65 51.4477C45.65 50.6163 44.9697 49.936 44.1384 49.936Z" fill="white"/>
</svg>
