<svg width="51" height="65" viewBox="0 0 51 65" fill="none" xmlns="http://www.w3.org/2000/svg">
<path d="M15.2233 30.3975H24.3014V39.7998L21.3283 36.8251C21.085 36.5817 20.7549 36.445 20.4108 36.445C20.0666 36.445 19.7366 36.5817 19.4932 36.8251C19.2499 37.0684 19.1132 37.3985 19.1132 37.7426C19.1132 38.0868 19.2499 38.4168 19.4932 38.6602L24.6807 43.8477C24.7115 43.8785 24.744 43.9076 24.7764 43.9352L24.8185 43.966L24.8785 44.0114L24.932 44.0438L24.9871 44.0762L25.0439 44.1038L25.1022 44.1297L25.159 44.1508L25.2222 44.1735L25.2789 44.1881L25.3454 44.2043L25.4135 44.214H25.4702C25.5554 44.2227 25.6412 44.2227 25.7263 44.214H25.7831L25.8512 44.2043L25.9176 44.1881L25.9744 44.1735L26.0376 44.1508L26.0943 44.1297L26.1527 44.1038L26.2094 44.0762L26.2645 44.0438L26.318 44.0114L26.378 43.966L26.4202 43.9352C26.4526 43.9076 26.485 43.8785 26.5158 43.8477L31.7033 38.6602C31.9467 38.4168 32.0834 38.0868 32.0834 37.7426C32.0834 37.3985 31.9467 37.0684 31.7033 36.8251C31.46 36.5817 31.1299 36.445 30.7858 36.445C30.4416 36.445 30.1116 36.5817 29.8682 36.8251L26.8952 39.7982V30.3958H35.9733C37.693 30.3958 39.3424 29.7127 40.5584 28.4966C41.7745 27.2806 42.4577 25.6312 42.4577 23.9115C42.4577 22.1917 41.7745 20.5424 40.5584 19.3263C39.3424 18.1103 37.693 17.4271 35.9733 17.4271C35.6783 17.4267 35.3836 17.4467 35.0914 17.4871C34.4584 15.4639 33.1958 13.6957 31.4876 12.4403C29.7794 11.1849 27.7149 10.5078 25.595 10.5078C23.4751 10.5078 21.4106 11.1849 19.7024 12.4403C17.9942 13.6957 16.7316 15.4639 16.0987 17.4871C15.8065 17.4467 15.5118 17.4267 15.2168 17.4271C13.497 17.4271 11.8477 18.1103 10.6317 19.3263C9.4156 20.5424 8.73242 22.1917 8.73242 23.9115C8.73242 25.6312 9.4156 27.2806 10.6317 28.4966C11.8477 29.7127 13.497 30.3958 15.2168 30.3958L15.2233 30.3975ZM15.2233 20.0225C15.6951 20.0214 16.1632 20.1066 16.6045 20.2737C16.7844 20.3421 16.9772 20.3696 17.1691 20.3542C17.361 20.3388 17.547 20.2809 17.7137 20.1847C17.8804 20.0884 18.0235 19.9563 18.1328 19.7979C18.2421 19.6394 18.3148 19.4587 18.3455 19.2687C18.6282 17.5481 19.513 15.9841 20.842 14.8555C22.1711 13.727 23.858 13.1074 25.6015 13.1074C27.3451 13.1074 29.0319 13.727 30.361 14.8555C31.6901 15.9841 32.5749 17.5481 32.8575 19.2687C32.8883 19.4587 32.9609 19.6394 33.0702 19.7979C33.1795 19.9563 33.3227 20.0884 33.4894 20.1847C33.6561 20.2809 33.8421 20.3388 34.0339 20.3542C34.2258 20.3696 34.4187 20.3421 34.5986 20.2737C35.1319 20.0721 35.7031 19.9902 36.2716 20.0338C36.8401 20.0774 37.3921 20.2455 37.8885 20.526C38.3848 20.8066 38.8135 21.1928 39.1441 21.6573C39.4746 22.1219 39.6991 22.6534 39.8015 23.2144C39.9039 23.7753 39.8817 24.3518 39.7366 24.9032C39.5915 25.4546 39.327 25.9674 38.9618 26.4052C38.5965 26.8431 38.1395 27.1953 37.6231 27.437C37.1067 27.6786 36.5435 27.8038 35.9733 27.8037H26.8952V22.1785C26.8952 21.8346 26.7585 21.5047 26.5153 21.2615C26.2721 21.0183 25.9422 20.8816 25.5983 20.8816C25.2543 20.8816 24.9245 21.0183 24.6812 21.2615C24.438 21.5047 24.3014 21.8346 24.3014 22.1785V27.8037H15.2233C14.1914 27.8037 13.2018 27.3938 12.4722 26.6642C11.7426 25.9345 11.3327 24.9449 11.3327 23.9131C11.3327 22.8812 11.7426 21.8916 12.4722 21.162C13.2018 20.4324 14.1914 20.0225 15.2233 20.0225Z" fill="white"/>
<path d="M48.9414 54.5996C49.2854 54.5996 49.6152 54.463 49.8584 54.2198C50.1016 53.9766 50.2383 53.6467 50.2383 53.3027V1.42773C50.2383 1.08378 50.1016 0.753917 49.8584 0.510706C49.6152 0.267494 49.2854 0.130859 48.9414 0.130859H6.10562C4.74038 0.132576 3.43157 0.67579 2.46634 1.64132C1.50112 2.60684 0.958318 3.91583 0.957031 5.28107V58.4902C0.957031 60.21 1.6402 61.8593 2.85626 63.0754C4.07232 64.2914 5.72164 64.9746 7.44141 64.9746H48.9414C49.2854 64.9746 49.6152 64.838 49.8584 64.5948C50.1016 64.3516 50.2383 64.0217 50.2383 63.6777C50.2383 63.3338 50.1016 63.0039 49.8584 62.7607C49.6152 62.5175 49.2854 62.3809 48.9414 62.3809H45.0508V54.5996H48.9414ZM6.10562 2.72461H47.6445V52.0059H7.44141C6.03802 52.0036 4.67215 52.4589 3.55078 53.3027V5.28107C3.55121 4.60347 3.82047 3.95372 4.29945 3.47443C4.77844 2.99514 5.42802 2.72547 6.10562 2.72461ZM3.55078 58.4902C3.55078 57.4584 3.96068 56.4688 4.69032 55.7391C5.41995 55.0095 6.40955 54.5996 7.44141 54.5996H42.457V62.3809H7.44141C6.40955 62.3809 5.41995 61.971 4.69032 61.2413C3.96068 60.5117 3.55078 59.5221 3.55078 58.4902Z" fill="white"/>
</svg>
