<svg width="23" height="21" viewBox="0 0 23 21" fill="none" xmlns="http://www.w3.org/2000/svg">
<g clip-path="url(#clip0_346_4143)">
<path d="M15.625 0H7.375C5.55164 0 3.80295 0.691404 2.51364 1.92211C1.22433 3.15282 0.5 4.82202 0.5 6.5625L0.5 14.4375C0.5 16.178 1.22433 17.8472 2.51364 19.0779C3.80295 20.3086 5.55164 21 7.375 21H15.625C17.4484 21 19.197 20.3086 20.4864 19.0779C21.7757 17.8472 22.5 16.178 22.5 14.4375V6.5625C22.5 4.82202 21.7757 3.15282 20.4864 1.92211C19.197 0.691404 17.4484 0 15.625 0ZM20.4375 14.4375C20.4375 16.9706 18.2787 19.0312 15.625 19.0312H7.375C4.72125 19.0312 2.5625 16.9706 2.5625 14.4375V6.5625C2.5625 4.02938 4.72125 1.96875 7.375 1.96875H15.625C18.2787 1.96875 20.4375 4.02938 20.4375 6.5625V14.4375Z" fill="url(#paint0_linear_346_4143)"/>
<path d="M11.5 5.25C10.0413 5.25 8.64236 5.80312 7.61091 6.78769C6.57946 7.77226 6 9.10761 6 10.5C6 11.8924 6.57946 13.2277 7.61091 14.2123C8.64236 15.1969 10.0413 15.75 11.5 15.75C12.9587 15.75 14.3576 15.1969 15.3891 14.2123C16.4205 13.2277 17 11.8924 17 10.5C17 9.10761 16.4205 7.77226 15.3891 6.78769C14.3576 5.80312 12.9587 5.25 11.5 5.25ZM11.5 13.7812C10.5887 13.7802 9.71495 13.4342 9.07053 12.819C8.42611 12.2039 8.06359 11.3699 8.0625 10.5C8.0625 8.69006 9.60525 7.21875 11.5 7.21875C13.3948 7.21875 14.9375 8.69006 14.9375 10.5C14.9375 12.3086 13.3948 13.7812 11.5 13.7812Z" fill="url(#paint1_linear_346_4143)"/>
<path d="M17.4126 5.55537C17.8173 5.55537 18.1454 5.24217 18.1454 4.85581C18.1454 4.46945 17.8173 4.15625 17.4126 4.15625C17.0078 4.15625 16.6797 4.46945 16.6797 4.85581C16.6797 5.24217 17.0078 5.55537 17.4126 5.55537Z" fill="url(#paint2_linear_346_4143)"/>
</g>
<defs>
<linearGradient id="paint0_linear_346_4143" x1="2.513" y1="19.0785" x2="19.6515" y2="1.12393" gradientUnits="userSpaceOnUse">
<stop stop-color="#FFC107"/>
<stop offset="0.507" stop-color="#F44336"/>
<stop offset="0.99" stop-color="#9C27B0"/>
</linearGradient>
<linearGradient id="paint1_linear_346_4143" x1="7.6115" y1="14.2117" x2="15.027" y2="6.44316" gradientUnits="userSpaceOnUse">
<stop stop-color="#FFC107"/>
<stop offset="0.507" stop-color="#F44336"/>
<stop offset="0.99" stop-color="#9C27B0"/>
</linearGradient>
<linearGradient id="paint2_linear_346_4143" x1="16.8942" y1="5.35062" x2="17.8827" y2="4.315" gradientUnits="userSpaceOnUse">
<stop stop-color="#FFC107"/>
<stop offset="0.507" stop-color="#F44336"/>
<stop offset="0.99" stop-color="#9C27B0"/>
</linearGradient>
<clipPath id="clip0_346_4143">
<rect width="22" height="21" fill="white" transform="translate(0.5)"/>
</clipPath>
</defs>
</svg>
