<svg width="21" height="21" viewBox="0 0 21 21" fill="none" xmlns="http://www.w3.org/2000/svg">
<g clip-path="url(#clip0_362_882)">
<path d="M10.168 0.5C4.64484 0.5 0.167969 4.97688 0.167969 10.5C0.167969 16.0225 4.64484 20.5 10.168 20.5C15.6911 20.5 20.168 16.0225 20.168 10.5C20.168 4.97688 15.6911 0.5 10.168 0.5Z" fill="#003180"/>
<path d="M15.3503 14.8388V11.0032C15.3503 8.9482 14.2534 7.99195 12.7903 7.99195C11.6097 7.99195 11.0809 8.64133 10.7866 9.09695V8.14883H8.56281C8.59219 8.77695 8.56281 14.8388 8.56281 14.8388H10.7866V11.1026C10.7866 10.9032 10.8009 10.7032 10.8597 10.5607C11.0203 10.1613 11.3859 9.74758 12.0003 9.74758C12.8053 9.74758 13.1272 10.3607 13.1272 11.2601V14.8395L15.3503 14.8388ZM6.21969 7.2357C6.99469 7.2357 7.47781 6.72133 7.47781 6.07945C7.46344 5.4232 6.99469 4.92383 6.23406 4.92383C5.47344 4.92383 4.97656 5.4232 4.97656 6.07945C4.97656 6.72195 5.45906 7.2357 6.20594 7.2357H6.21969ZM7.33156 14.8388V8.14883H5.10844V14.8388H7.33156Z" fill="white"/>
</g>
<defs>
<clipPath id="clip0_362_882">
<rect width="20" height="20" fill="white" transform="translate(0.167969 0.5)"/>
</clipPath>
</defs>
</svg>
