<svg width="22" height="21" viewBox="0 0 22 21" fill="none" xmlns="http://www.w3.org/2000/svg">
<g clip-path="url(#clip0_362_894)">
<path fill-rule="evenodd" clip-rule="evenodd" d="M20.6075 5.32875C20.0379 4.3155 19.4197 4.12913 18.161 4.05825C16.9036 3.97294 13.7418 3.9375 11.0026 3.9375C8.25819 3.9375 5.09506 3.97294 3.839 4.05694C2.58294 4.12913 1.96344 4.31419 1.38856 5.32875C0.801875 6.34069 0.5 8.08369 0.5 11.1523V11.1628C0.5 14.2183 0.801875 15.9744 1.38856 16.9759C1.96344 17.9891 2.58162 18.1729 3.83769 18.2582C5.09506 18.3317 8.25819 18.375 11.0026 18.375C13.7418 18.375 16.9036 18.3317 18.1623 18.2595C19.421 18.1742 20.0392 17.9904 20.6088 16.9772C21.2008 15.9758 21.5 14.2196 21.5 11.1641V11.1536C21.5 8.08369 21.2008 6.34069 20.6075 5.32875Z" fill="#F44336"/>
<path fill-rule="evenodd" clip-rule="evenodd" d="M8.375 15.0938V7.21875L14.9375 11.1562L8.375 15.0938Z" fill="#FAFAFA"/>
</g>
<defs>
<clipPath id="clip0_362_894">
<rect width="21" height="21" fill="white" transform="translate(0.5)"/>
</clipPath>
</defs>
</svg>
